<svg id="Layer_1" data-name="Layer 1" xmlns="http://www.w3.org/2000/svg" viewBox="0 0 187 187"><defs><style>.cls-1,.cls-2{fill:#aaa;}.cls-2,.cls-3{stroke:#000;stroke-miterlimit:10;}.cls-3{fill:#ccc;}</style></defs><rect class="cls-1" x="1.5" y="1.5" width="185" height="185"/><path d="M192,8V192H8V8H192m1-1H7V193H193V7Z" transform="translate(-6 -6)"/><rect class="cls-2" x="0.5" y="0.5" width="46.5" height="46.5"/><path class="cls-3" d="M6.5,146v46.5H53V146ZM53,99.5V146H99.5V99.5Zm93-93V53h46.5V6.5Zm-46.5,93H146V53H99.5ZM53,6.5V53H99.5V6.5Zm93,93V146h46.5V99.5ZM99.5,146v46.5H146V146ZM6.5,53V99.5H53V53Z" transform="translate(-6 -6)"/><rect class="cls-2" x="93.5" y="0.5" width="46.5" height="46.5"/><rect class="cls-2" x="140" y="47" width="46.5" height="46.5"/><rect class="cls-2" x="140" y="140" width="46.5" height="46.5"/><rect class="cls-2" x="47" y="140" width="46.5" height="46.5"/><rect class="cls-2" x="0.5" y="93.5" width="46.5" height="46.5"/><rect class="cls-2" x="47" y="47" width="46.5" height="46.5"/><rect class="cls-2" x="93.5" y="93.5" width="46.5" height="46.5"/></svg>