<svg id="Layer_1" data-name="Layer 1" xmlns="http://www.w3.org/2000/svg" viewBox="0 0 337.7 337.7"><defs><style>.cls-1{fill:none;stroke:#1d1d1b;stroke-miterlimit:10;}.cls-2{fill:#575756;}</style></defs><path class="cls-1" d="M173,273H327a80.39,80.39,0,0,1-154,0Z" transform="translate(-81.15 -81.15)"/><path class="cls-1" d="M327,227H173a80.39,80.39,0,0,1,154,0Z" transform="translate(-81.15 -81.15)"/><path class="cls-2" d="M418.85,252.81v-5.62l-52-15.93q-.75-4.72-1.87-9.3l41.79-34.85-2.18-5.17-54.15,5.5q-2.16-3.48-4.57-6.78l25.55-48.07-4-4-48.07,25.55c-2.55-1.86-5.19-3.62-7.89-5.26l4.9-54.2-5.19-2.12-34.39,42.16q-4-.92-8-1.56l-15.93-52h-5.62l-15.93,52q-4.72.75-9.3,1.87L187.11,93.27l-5.17,2.18,5.5,54.15q-3.48,2.16-6.78,4.57l-48.07-25.55-4,4,25.55,48.07c-1.86,2.55-3.62,5.19-5.26,7.89l-54.2-4.9-2.12,5.19,42.16,34.39q-.92,4-1.56,8l-52,15.93v5.62l52,15.93q.75,4.72,1.87,9.3L93.27,312.89l2.18,5.17,54.15-5.5q2.16,3.48,4.57,6.78l-25.55,48.07,4,4,48.07-25.55c2.55,1.86,5.19,3.62,7.89,5.26l-4.9,54.2,5.19,2.12,34.39-42.16q4,.92,8,1.56l15.93,52h5.62l15.93-52q4.72-.75,9.3-1.87l34.85,41.79,5.17-2.18-5.5-54.15q3.48-2.16,6.78-4.57l48.07,25.55,4-4-25.55-48.07c1.86-2.55,3.62-5.19,5.26-7.89l54.2,4.9,2.12-5.19-42.16-34.39q.92-4,1.56-8ZM250,169.64A80.4,80.4,0,0,1,327,227H173A80.4,80.4,0,0,1,250,169.64Zm0,160.72A80.4,80.4,0,0,1,173,273H327A80.4,80.4,0,0,1,250,330.36Z" transform="translate(-81.15 -81.15)"/></svg>