<svg id="Layer_1" data-name="Layer 1" xmlns="http://www.w3.org/2000/svg" viewBox="0 0 1024.19 1039.91"><defs><style>.cls-1{fill:#a87373;}.cls-2{fill:#724f4f;}.cls-3{fill:#a3a3a3;}.cls-4{fill:#5a969e;}.cls-5{fill:#9e6161;}</style></defs><circle class="cls-1" cx="1007.69" cy="216.07" r="16.5"/><path class="cls-2" d="M1088.5,298.5A16.5,16.5,0,0,1,1072,315s12.54-3.08,12.54-16.5-13-16.5-12.54-16.5A16.5,16.5,0,0,1,1088.5,298.5Z" transform="translate(-64.31 -82.43)"/><circle class="cls-1" cx="111.88" cy="535.15" r="16.5"/><path class="cls-2" d="M161.3,624.7a16.49,16.49,0,0,1,7.78-22s-10,8.18-4.21,20.29,18.83,9.3,18.43,9.48A16.5,16.5,0,0,1,161.3,624.7Z" transform="translate(-64.31 -82.43)"/><circle class="cls-1" cx="230.88" cy="381.15" r="16.5"/><path class="cls-2" d="M282.75,474.43a16.5,16.5,0,0,1,1.6-23.28s-7.43,10.56,1.38,20.67,20.63,3.92,20.3,4.2A16.5,16.5,0,0,1,282.75,474.43Z" transform="translate(-64.31 -82.43)"/><circle class="cls-1" cx="934.69" cy="614.07" r="16.5"/><path class="cls-2" d="M1010.52,708.32a16.51,16.51,0,0,1-23.34-.3s11,6.83,20.57-2.54,2.76-20.81,3.07-20.5A16.51,16.51,0,0,1,1010.52,708.32Z" transform="translate(-64.31 -82.43)"/><ellipse class="cls-3" cx="529.19" cy="495.07" rx="4" ry="4.5"/><ellipse class="cls-4" cx="799.19" cy="411.07" rx="4" ry="4.5"/><ellipse class="cls-3" cx="771.19" cy="655.07" rx="4" ry="4.5"/><ellipse class="cls-3" cx="653.19" cy="38.07" rx="4" ry="4.5"/><ellipse class="cls-3" cx="44.19" cy="341.07" rx="4" ry="4.5"/><ellipse class="cls-3" cx="960.19" cy="288.07" rx="4" ry="4.5"/><ellipse class="cls-3" cx="447.19" cy="279.07" rx="4" ry="4.5"/><polygon class="cls-5" points="130.96 288.5 126.84 283.55 120.42 284.14 123.86 278.69 121.31 272.77 127.56 274.35 132.4 270.1 132.83 276.53 138.37 279.82 132.38 282.21 130.96 288.5"/><polygon class="cls-5" points="361.58 639.72 357.45 634.77 351.04 635.36 354.47 629.91 351.93 623.99 358.17 625.57 363.02 621.32 363.44 627.75 368.98 631.04 363 633.44 361.58 639.72"/><polygon class="cls-5" points="1009.58 415.72 1005.45 410.77 999.04 411.36 1002.47 405.91 999.93 399.99 1006.17 401.57 1011.02 397.32 1011.44 403.75 1016.98 407.05 1011 409.44 1009.58 415.72"/><polygon class="cls-5" points="626.58 354.72 622.45 349.77 616.04 350.36 619.47 344.91 616.93 338.99 623.17 340.57 628.02 336.32 628.44 342.75 633.98 346.05 628 348.44 626.58 354.72"/><circle class="cls-1" cx="519.69" cy="884.07" r="16.5"/><path class="cls-2" d="M600.5,966.5A16.5,16.5,0,0,1,584,983s12.54-3.08,12.54-16.5S583.56,950,584,950A16.5,16.5,0,0,1,600.5,966.5Z" transform="translate(-64.31 -82.43)"/><circle class="cls-1" cx="71.69" cy="851.5" r="16.5"/><path class="cls-2" d="M121.1,941.05a16.51,16.51,0,0,1,7.78-22s-10,8.18-4.2,20.29,18.82,9.29,18.42,9.48A16.5,16.5,0,0,1,121.1,941.05Z" transform="translate(-64.31 -82.43)"/><circle class="cls-1" cx="692.69" cy="16.5" r="16.5"/><path class="cls-2" d="M744.55,109.77a16.51,16.51,0,0,1,1.6-23.28s-7.43,10.57,1.39,20.68,20.62,3.91,20.29,4.2A16.5,16.5,0,0,1,744.55,109.77Z" transform="translate(-64.31 -82.43)"/><circle class="cls-1" cx="894.5" cy="930.41" r="16.5"/><path class="cls-2" d="M970.32,1024.66a16.5,16.5,0,0,1-23.33-.29s11,6.83,20.57-2.54,2.75-20.81,3.06-20.5A16.49,16.49,0,0,1,970.32,1024.66Z" transform="translate(-64.31 -82.43)"/><ellipse class="cls-3" cx="489" cy="811.41" rx="4" ry="4.5"/><ellipse class="cls-4" cx="759" cy="727.41" rx="4" ry="4.5"/><ellipse class="cls-3" cx="731" cy="971.41" rx="4" ry="4.5"/><ellipse class="cls-3" cx="111" cy="1035.41" rx="4" ry="4.5"/><ellipse class="cls-3" cx="4" cy="657.41" rx="4" ry="4.5"/><ellipse class="cls-3" cx="920" cy="604.41" rx="4" ry="4.5"/><ellipse class="cls-3" cx="407" cy="595.41" rx="4" ry="4.5"/><polygon class="cls-5" points="90.77 604.85 86.64 599.9 80.23 600.49 83.66 595.04 81.12 589.12 87.36 590.7 92.21 586.45 92.64 592.88 98.17 596.17 92.19 598.56 90.77 604.85"/><polygon class="cls-5" points="321.38 956.07 317.26 951.12 310.84 951.71 314.27 946.26 311.73 940.34 317.98 941.92 322.82 937.67 323.25 944.1 328.79 947.39 322.8 949.79 321.38 956.07"/><polygon class="cls-5" points="969.38 732.07 965.26 727.12 958.84 727.71 962.27 722.26 959.73 716.34 965.98 717.92 970.82 713.67 971.25 720.1 976.79 723.39 970.8 725.79 969.38 732.07"/><polygon class="cls-5" points="586.38 671.07 582.26 666.12 575.84 666.71 579.27 661.26 576.73 655.34 582.98 656.92 587.82 652.67 588.25 659.1 593.79 662.39 587.8 664.79 586.38 671.07"/><circle class="cls-1" cx="839.5" cy="241.41" r="16.5"/><path class="cls-2" d="M920.31,323.85a16.5,16.5,0,0,1-16.5,16.5s12.54-3.08,12.54-16.5-13-16.5-12.54-16.5A16.5,16.5,0,0,1,920.31,323.85Z" transform="translate(-64.31 -82.43)"/><circle class="cls-1" cx="610.77" cy="237.1" r="16.5"/><path class="cls-2" d="M660.19,326.64a16.5,16.5,0,0,1,7.77-22s-10,8.19-4.2,20.3,18.82,9.29,18.43,9.48A16.49,16.49,0,0,1,660.19,326.64Z" transform="translate(-64.31 -82.43)"/><circle class="cls-1" cx="195.69" cy="123.5" r="16.5"/><path class="cls-2" d="M247.55,216.77a16.51,16.51,0,0,1,1.6-23.28s-7.43,10.57,1.39,20.68,20.62,3.91,20.29,4.2A16.5,16.5,0,0,1,247.55,216.77Z" transform="translate(-64.31 -82.43)"/><circle class="cls-1" cx="899.5" cy="356.41" r="16.5"/><path class="cls-2" d="M975.32,450.66a16.5,16.5,0,0,1-23.33-.29s11,6.83,20.57-2.54,2.75-20.81,3.06-20.5A16.49,16.49,0,0,1,975.32,450.66Z" transform="translate(-64.31 -82.43)"/><ellipse class="cls-3" cx="494" cy="237.41" rx="4" ry="4.5"/><ellipse class="cls-4" cx="764" cy="153.41" rx="4" ry="4.5"/><ellipse class="cls-3" cx="736" cy="397.41" rx="4" ry="4.5"/><ellipse class="cls-3" cx="116" cy="461.41" rx="4" ry="4.5"/><ellipse class="cls-3" cx="9" cy="83.41" rx="4" ry="4.5"/><ellipse class="cls-3" cx="925" cy="30.41" rx="4" ry="4.5"/><ellipse class="cls-3" cx="412" cy="21.41" rx="4" ry="4.5"/><polygon class="cls-5" points="95.77 30.85 91.64 25.9 85.23 26.49 88.66 21.04 86.12 15.12 92.36 16.7 97.21 12.45 97.64 18.88 103.17 22.17 97.19 24.56 95.77 30.85"/><polygon class="cls-5" points="326.38 382.07 322.26 377.12 315.84 377.71 319.27 372.26 316.73 366.34 322.98 367.92 327.82 363.67 328.25 370.1 333.79 373.39 327.8 375.79 326.38 382.07"/><polygon class="cls-5" points="974.38 158.07 970.26 153.12 963.84 153.71 967.27 148.26 964.73 142.34 970.98 143.92 975.82 139.67 976.25 146.1 981.79 149.39 975.8 151.79 974.38 158.07"/><polygon class="cls-5" points="591.38 97.07 587.26 92.12 580.84 92.71 584.27 87.26 581.73 81.34 587.98 82.92 592.82 78.67 593.25 85.1 598.79 88.39 592.8 90.79 591.38 97.07"/></svg>