<svg id="Layer_1" data-name="Layer 1" xmlns="http://www.w3.org/2000/svg" viewBox="0 0 1079 1067.11"><defs><style>.cls-1{fill:#a87373;}.cls-2{fill:#724f4f;}.cls-3{fill:#a3a3a3;}.cls-4{fill:#5a969e;}.cls-5{fill:#aaa;}.cls-6{fill:#666;}.cls-7{fill:#9e6161;}.cls-8{fill:#999;}.cls-9{fill:gray;}.cls-10{fill:#1a1a1a;}.cls-11{fill:#a561aa;}.cls-12{fill:#662d91;}.cls-13{fill:#9e9a9a;}</style></defs><circle class="cls-1" cx="893.56" cy="280.19" r="9.43"/><path class="cls-2" d="M967.3,355.43a9.43,9.43,0,0,1-9.43,9.43s7.16-1.76,7.16-9.43-7.42-9.43-7.16-9.43A9.43,9.43,0,0,1,967.3,355.43Z" transform="translate(-64.31 -75.24)"/><path class="cls-2" d="M656.75,210.43a16.5,16.5,0,0,1,1.6-23.28s-7.43,10.56,1.38,20.67,20.63,3.92,20.3,4.2A16.5,16.5,0,0,1,656.75,210.43Z" transform="translate(-64.31 -75.24)"/><path class="cls-2" d="M1010.52,708.32a16.51,16.51,0,0,1-23.34-.3s11,6.83,20.57-2.54,2.76-20.81,3.07-20.5A16.51,16.51,0,0,1,1010.52,708.32Z" transform="translate(-64.31 -75.24)"/><ellipse class="cls-3" cx="903.19" cy="238.26" rx="4" ry="4.5"/><ellipse class="cls-4" cx="806.19" cy="477.26" rx="4" ry="4.5"/><ellipse class="cls-3" cx="813.19" cy="682.26" rx="4" ry="4.5"/><ellipse class="cls-3" cx="618.19" cy="84.26" rx="4" ry="4.5"/><ellipse class="cls-3" cx="418.19" cy="84.26" rx="4" ry="4.5"/><ellipse class="cls-3" cx="925.19" cy="334.26" rx="4" ry="4.5"/><ellipse class="cls-3" cx="786.19" cy="61.26" rx="4" ry="4.5"/><polygon class="cls-5" points="528.59 62.3 524.61 57.53 518.42 58.1 521.74 52.84 519.28 47.13 525.31 48.65 529.98 44.55 530.39 50.76 535.74 53.94 529.96 56.24 528.59 62.3"/><polygon class="cls-6" points="419.05 685.1 415.07 680.33 408.88 680.89 412.19 675.63 409.74 669.92 415.76 671.45 420.44 667.35 420.85 673.55 426.19 676.73 420.42 679.04 419.05 685.1"/><polygon class="cls-7" points="967.12 488.03 963.14 483.25 956.95 483.82 960.26 478.56 957.81 472.85 963.84 474.38 968.51 470.28 968.92 476.48 974.26 479.66 968.49 481.96 967.12 488.03"/><polygon class="cls-8" points="971.67 165.18 967.69 160.41 961.5 160.98 964.82 155.72 962.36 150.01 968.39 151.53 973.06 147.43 973.47 153.64 978.81 156.81 973.04 159.12 971.67 165.18"/><path class="cls-2" d="M642.5,986.5A16.5,16.5,0,0,1,626,1003s12.54-3.08,12.54-16.5S625.56,970,626,970A16.5,16.5,0,0,1,642.5,986.5Z" transform="translate(-64.31 -75.24)"/><circle class="cls-1" cx="110.3" cy="888.29" r="9.31"/><path class="cls-2" d="M166.2,967.54a9.31,9.31,0,0,1,4.39-12.41s-5.63,4.61-2.37,11.44,10.62,5.25,10.39,5.35A9.31,9.31,0,0,1,166.2,967.54Z" transform="translate(-64.31 -75.24)"/><circle class="cls-9" cx="656.96" cy="73.24" r="9.03"/><path class="cls-2" d="M714.46,154.41a9,9,0,0,1,.88-12.74s-4.07,5.78.76,11.31,11.28,2.14,11.1,2.3A9,9,0,0,1,714.46,154.41Z" transform="translate(-64.31 -75.24)"/><circle class="cls-1" cx="936.33" cy="970.69" r="7.26"/><path class="cls-2" d="M1005.7,1051.12a7.26,7.26,0,0,1-10.26-.13,7.48,7.48,0,0,0,9-1.12c4.22-4.12,1.21-9.15,1.34-9A7.25,7.25,0,0,1,1005.7,1051.12Z" transform="translate(-64.31 -75.24)"/><ellipse class="cls-3" cx="531" cy="838.61" rx="4" ry="4.5"/><ellipse class="cls-4" cx="801" cy="754.61" rx="4" ry="4.5"/><ellipse class="cls-3" cx="773" cy="998.61" rx="4" ry="4.5"/><ellipse class="cls-3" cx="153" cy="1062.61" rx="4" ry="4.5"/><ellipse class="cls-3" cx="4" cy="664.61" rx="4" ry="4.5"/><ellipse class="cls-3" cx="962" cy="631.61" rx="4" ry="4.5"/><ellipse class="cls-3" cx="781" cy="338.61" rx="4" ry="4.5"/><polygon class="cls-7" points="157.82 651.46 153.84 646.68 147.65 647.25 150.97 642 148.51 636.28 154.54 637.81 159.21 633.71 159.62 639.91 164.96 643.09 159.19 645.4 157.82 651.46"/><polygon class="cls-7" points="380.27 990.26 376.3 985.48 370.11 986.05 373.42 980.79 370.96 975.08 376.99 976.61 381.66 972.51 382.07 978.71 387.42 981.89 381.64 984.19 380.27 990.26"/><polygon class="cls-7" points="963.35 754.18 959.37 749.41 953.18 749.98 956.49 744.72 954.04 739.01 960.06 740.53 964.74 736.43 965.15 742.63 970.49 745.81 964.72 748.12 963.35 754.18"/><polygon class="cls-9" points="635.9 715.34 631.92 710.56 625.73 711.13 629.04 705.87 626.59 700.16 632.61 701.69 637.29 697.59 637.7 703.79 643.04 706.97 637.27 709.28 635.9 715.34"/><circle cx="797.43" cy="294.68" r="9.43"/><path class="cls-10" d="M871.17,369.92a9.43,9.43,0,0,1-9.43,9.43s7.16-1.76,7.16-9.43-7.42-9.43-7.16-9.43A9.43,9.43,0,0,1,871.17,369.92Z" transform="translate(-64.31 -75.24)"/><circle class="cls-11" cx="904.29" cy="9.13" r="9.13"/><path class="cls-12" d="M960.36,88.3a9.13,9.13,0,0,1,4.31-12.17s-5.53,4.53-2.33,11.22,10.41,5.15,10.19,5.25A9.13,9.13,0,0,1,960.36,88.3Z" transform="translate(-64.31 -75.24)"/><circle class="cls-1" cx="194.87" cy="142.63" r="8.04"/><path class="cls-2" d="M253.11,223.15a8,8,0,0,1,.78-11.35,8.29,8.29,0,0,0,.67,10.08c4.3,4.93,10.06,1.91,9.9,2.05A8,8,0,0,1,253.11,223.15Z" transform="translate(-64.31 -75.24)"/><path class="cls-2" d="M982.32,509.66a16.5,16.5,0,0,1-23.33-.29s11,6.83,20.57-2.54,2.75-20.81,3.06-20.5A16.49,16.49,0,0,1,982.32,509.66Z" transform="translate(-64.31 -75.24)"/><ellipse class="cls-3" cx="459" cy="283.61" rx="4" ry="4.5"/><ellipse class="cls-4" cx="729" cy="199.61" rx="4" ry="4.5"/><ellipse class="cls-3" cx="1075" cy="179.61" rx="4" ry="4.5"/><ellipse class="cls-3" cx="490" cy="204.61" rx="4" ry="4.5"/><ellipse class="cls-3" cx="9" cy="90.61" rx="4" ry="4.5"/><ellipse class="cls-3" cx="890" cy="76.61" rx="4" ry="4.5"/><ellipse class="cls-3" cx="377" cy="67.61" rx="4" ry="4.5"/><polygon class="cls-7" points="120.64 77.77 116.67 72.99 110.47 73.56 113.79 68.3 111.33 62.59 117.36 64.12 122.03 60.02 122.44 66.22 127.78 69.4 122.01 71.71 120.64 77.77"/><polygon class="cls-13" points="682.1 191.56 678.12 186.79 671.93 187.36 675.24 182.1 672.79 176.39 678.81 177.91 683.49 173.81 683.9 180.02 689.24 183.19 683.47 185.5 682.1 191.56"/><polygon class="cls-9" points="933.17 239.49 929.19 234.71 923 235.28 926.32 230.02 923.86 224.31 929.89 225.84 934.56 221.74 934.97 227.94 940.31 231.12 934.54 233.43 933.17 239.49"/><polygon class="cls-7" points="563.72 180.65 559.74 175.87 553.55 176.44 556.87 171.18 554.41 165.47 560.44 167 565.11 162.9 565.52 169.1 570.86 172.28 565.09 174.59 563.72 180.65"/><path class="cls-2" d="M242.82,464.45a16.5,16.5,0,0,1,1.6-23.28s-7.43,10.56,1.38,20.68,20.63,3.91,20.3,4.2A16.5,16.5,0,0,1,242.82,464.45Z" transform="translate(-64.31 -75.24)"/><ellipse class="cls-3" cx="489.26" cy="492.29" rx="4" ry="4.5"/><ellipse class="cls-3" cx="4.26" cy="338.29" rx="4" ry="4.5"/><ellipse class="cls-3" cx="372.26" cy="315.29" rx="4" ry="4.5"/><polygon class="cls-5" points="114.66 316.33 110.69 311.55 104.5 312.12 107.81 306.86 105.35 301.15 111.38 302.68 116.05 298.58 116.46 304.78 121.81 307.96 116.03 310.26 114.66 316.33"/><polygon class="cls-8" points="557.74 419.21 553.76 414.43 547.57 415 550.88 409.74 548.43 404.03 554.46 405.56 559.13 401.46 559.54 407.66 564.88 410.84 559.11 413.14 557.74 419.21"/><ellipse class="cls-3" cx="367.07" cy="592.64" rx="4" ry="4.5"/><circle class="cls-11" cx="490.36" cy="263.15" r="9.13"/><path class="cls-12" d="M546.43,342.32a9.13,9.13,0,0,1,4.31-12.17s-5.53,4.53-2.33,11.23,10.41,5.14,10.19,5.24A9.12,9.12,0,0,1,546.43,342.32Z" transform="translate(-64.31 -75.24)"/><ellipse class="cls-3" cx="661.07" cy="433.64" rx="4" ry="4.5"/><ellipse class="cls-3" cx="76.07" cy="458.64" rx="4" ry="4.5"/><polygon class="cls-13" points="268.17 445.59 264.19 440.81 258 441.38 261.31 436.12 258.86 430.41 264.88 431.94 269.56 427.84 269.97 434.04 275.31 437.22 269.54 439.52 268.17 445.59"/></svg>