<svg id="Layer_1" data-name="Layer 1" xmlns="http://www.w3.org/2000/svg" viewBox="0 0 397.86 397.86"><defs><style>.cls-1{fill:#575756;}</style></defs><path class="cls-1" d="M236.55,51.07V64.93A185.57,185.57,0,0,0,64.93,236.55H51.07C57.69,137.15,137.15,57.69,236.55,51.07Z" transform="translate(-51.07 -51.07)"/><path class="cls-1" d="M236.55,435.07v13.86c-99.4-6.62-178.86-86.08-185.48-185.48H64.93A185.57,185.57,0,0,0,236.55,435.07Z" transform="translate(-51.07 -51.07)"/><path class="cls-1" d="M448.93,263.45c-6.62,99.4-86.08,178.86-185.48,185.48V435.07A185.57,185.57,0,0,0,435.07,263.45Z" transform="translate(-51.07 -51.07)"/><path class="cls-1" d="M448.93,236.55H435.07A185.57,185.57,0,0,0,263.45,64.93V51.07C362.85,57.69,442.31,137.15,448.93,236.55Z" transform="translate(-51.07 -51.07)"/></svg>