<svg id="Layer_1" data-name="Layer 1" xmlns="http://www.w3.org/2000/svg" viewBox="0 0 397.86 397.86"><defs><style>.cls-1{fill:#575756;}</style></defs><path class="cls-1" d="M236.55,51.07v50.38a149.17,149.17,0,0,0-135.1,135.1H51.07C57.69,137.15,137.15,57.69,236.55,51.07Z" transform="translate(-51.07 -51.07)"/><path class="cls-1" d="M236.55,398.55v50.38c-99.4-6.62-178.86-86.08-185.48-185.48h50.38A149.17,149.17,0,0,0,236.55,398.55Z" transform="translate(-51.07 -51.07)"/><path class="cls-1" d="M448.93,263.45c-6.62,99.4-86.08,178.86-185.48,185.48V398.55a149.17,149.17,0,0,0,135.1-135.1Z" transform="translate(-51.07 -51.07)"/><path class="cls-1" d="M448.93,236.55H398.55a149.17,149.17,0,0,0-135.1-135.1V51.07C362.85,57.69,442.31,137.15,448.93,236.55Z" transform="translate(-51.07 -51.07)"/></svg>