<svg id="Layer_1" data-name="Layer 1" xmlns="http://www.w3.org/2000/svg" viewBox="0 0 186 186"><defs><style>.cls-1{fill:#aaa;}.cls-2{fill:#ccc;}</style></defs><rect class="cls-1" x="0.5" y="0.5" width="185" height="185"/><path d="M192,8V192H8V8H192m1-1H7V193H193V7Z" transform="translate(-7 -7)"/><circle class="cls-2" cx="93" cy="93" r="47.94"/><path d="M100,52.56A47.44,47.44,0,1,1,52.56,100,47.49,47.49,0,0,1,100,52.56m0-1A48.44,48.44,0,1,0,148.44,100,48.44,48.44,0,0,0,100,51.56Z" transform="translate(-7 -7)"/><circle class="cls-2" cx="151.13" cy="34.88" r="19.84"/><path d="M158.12,22.53a19.35,19.35,0,1,1-19.34,19.35,19.37,19.37,0,0,1,19.34-19.35m0-1a20.35,20.35,0,1,0,20.35,20.35,20.35,20.35,0,0,0-20.35-20.35Z" transform="translate(-7 -7)"/><circle class="cls-2" cx="151.13" cy="151.13" r="19.84"/><path d="M158.12,138.78a19.35,19.35,0,1,1-19.34,19.34,19.37,19.37,0,0,1,19.34-19.34m0-1a20.35,20.35,0,1,0,20.35,20.34,20.34,20.34,0,0,0-20.35-20.34Z" transform="translate(-7 -7)"/><circle class="cls-2" cx="34.88" cy="34.88" r="19.84"/><path d="M41.88,22.53A19.35,19.35,0,1,1,22.53,41.88,19.37,19.37,0,0,1,41.88,22.53m0-1A20.35,20.35,0,1,0,62.22,41.88,20.35,20.35,0,0,0,41.88,21.53Z" transform="translate(-7 -7)"/><circle class="cls-2" cx="34.88" cy="151.13" r="19.84"/><path d="M41.88,138.78a19.35,19.35,0,1,1-19.35,19.34,19.37,19.37,0,0,1,19.35-19.34m0-1a20.35,20.35,0,1,0,20.34,20.34,20.35,20.35,0,0,0-20.34-20.34Z" transform="translate(-7 -7)"/></svg>