<svg id="Layer_1" data-name="Layer 1" xmlns="http://www.w3.org/2000/svg" viewBox="0 0 970.5 507.5"><defs><style>.cls-1{fill:#494949;}.cls-2{fill:#ff5050;}.cls-3{fill:#f33;}.cls-4{fill:none;stroke:red;stroke-miterlimit:10;stroke-width:3px;}.cls-5{fill:#3d3d3d;}.cls-6{fill:#262626;}</style></defs><path class="cls-1" d="M0,600S84.41,479.52,176,495c71,12,159.67-.52,214-31,41-23,156.29-80.44,226-41,76,43,126.64,79.26,210,66,88-14,144-58,144-58l.5,169Z" transform="translate(0 -92.5)"/><circle class="cls-2" cx="517" cy="97.5" r="75"/><path class="cls-3" d="M592,190a75,75,0,0,1-75,75s57-14,57-75-59-75-57-75A75,75,0,0,1,592,190Z" transform="translate(0 -92.5)"/><circle class="cls-4" cx="516.5" cy="98" r="96.5"/><path class="cls-5" d="M9,600s76.41-110.48,168-95c71,12,172.67,5.48,227-25,41-23,147.29-68.44,217-29,76,43,127.64,62.26,211,49,88-14,138-56,138-56l.5,156Z" transform="translate(0 -92.5)"/><path class="cls-6" d="M21,600s67.41-96.48,159-81c71,12,182.67,6.48,237-24,41-23,123.29-67.44,193-28,76,43,140.64,54.26,224,41,88-14,136-43,136-43l.5,135Z" transform="translate(0 -92.5)"/></svg>