<svg id="Layer_1" data-name="Layer 1" xmlns="http://www.w3.org/2000/svg" viewBox="0 0 1187 507.5"><defs><style>.cls-1{fill:#494949;}.cls-2{fill:#ff5050;}.cls-3{fill:#f33;}.cls-4{fill:none;stroke:red;stroke-miterlimit:10;stroke-width:3px;}.cls-5{fill:#3d3d3d;}.cls-6{fill:#262626;}</style></defs><path class="cls-1" d="M14.5,600s84.41-120.48,176-105c71,12,159.67-.52,214-31,41-23,156.29-80.44,226-41,76,43,148.51,78,230,56,137-37,195.94-5.07,258,39,69,49,83,82,83,82Z" transform="translate(-14.5 -92.5)"/><circle class="cls-2" cx="517" cy="97.5" r="75"/><path class="cls-3" d="M606.5,190a75,75,0,0,1-75,75s57-14,57-75-59-75-57-75A75,75,0,0,1,606.5,190Z" transform="translate(-14.5 -92.5)"/><circle class="cls-4" cx="516.5" cy="98" r="96.5"/><path class="cls-5" d="M23.5,600s76.41-110.48,168-95c71,12,172.67,5.48,227-25,41-23,147.29-68.44,217-29,76,43,127.64,62.26,211,49,41-6.52,134.43-25.55,208-1,84.43,28.18,147,101,147,101H23.5Z" transform="translate(-14.5 -92.5)"/><path class="cls-6" d="M35.5,600s67.41-96.48,159-81c71,12,182.67,6.48,237-24,41-23,123.29-67.44,193-28,76,43,140.64,64.26,224,51,41.2-6.55,111.25-29.09,202,3,82,29,150,79,150,79H35.5Z" transform="translate(-14.5 -92.5)"/></svg>