{
    "asset" : {
        "generator" : "Khronos glTF Blender I/O v1.3.48",
        "version" : "2.0"
    },
    "scene" : 0,
    "scenes" : [
        {
            "name" : "Scene",
            "nodes" : [
                0
            ]
        }
    ],
    "nodes" : [
        {
            "mesh" : 0,
            "name" : "Plane",
            "translation" : [
                0,
                0,
                -9
            ]
        }
    ],
    "meshes" : [
        {
            "name" : "Plane",
            "primitives" : [
                {
                    "attributes" : {
                        "POSITION" : 0,
                        "NORMAL" : 1,
                        "TEXCOORD_0" : 2
                    },
                    "indices" : 3
                }
            ]
        }
    ],
    "accessors" : [
        {
            "bufferView" : 0,
            "componentType" : 5126,
            "count" : 27720,
            "max" : [
                10.001433372497559,
                1.6195420026779175,
                10.066052436828613
            ],
            "min" : [
                -10.002639770507812,
                -1.3781018257141113,
                -10.018134117126465
            ],
            "type" : "VEC3"
        },
        {
            "bufferView" : 1,
            "componentType" : 5126,
            "count" : 27720,
            "type" : "VEC3"
        },
        {
            "bufferView" : 2,
            "componentType" : 5126,
            "count" : 27720,
            "type" : "VEC2"
        },
        {
            "bufferView" : 3,
            "componentType" : 5123,
            "count" : 155436,
            "type" : "SCALAR"
        }
    ],
    "bufferViews" : [
        {
            "buffer" : 0,
            "byteLength" : 332640,
            "byteOffset" : 0
        },
        {
            "buffer" : 0,
            "byteLength" : 332640,
            "byteOffset" : 332640
        },
        {
            "buffer" : 0,
            "byteLength" : 221760,
            "byteOffset" : 665280
        },
        {
            "buffer" : 0,
            "byteLength" : 310872,
            "byteOffset" : 887040
        }
    ],
    "buffers" : [
        {
            "byteLength" : 1197912,
            "uri" : "data:application/octet-stream;base64,"
        }
    ]
}
