{
    "asset" : {
        "generator" : "Khronos glTF Blender I/O v1.3.48",
        "version" : "2.0"
    },
    "scene" : 0,
    "scenes" : [
        {
            "name" : "Scene",
            "nodes" : [
                0
            ]
        }
    ],
    "nodes" : [
        {
            "mesh" : 0,
            "name" : "Plane",
            "translation" : [
                0,
                0,
                -9
            ]
        }
    ],
    "meshes" : [
        {
            "name" : "Plane",
            "primitives" : [
                {
                    "attributes" : {
                        "POSITION" : 0,
                        "NORMAL" : 1,
                        "TEXCOORD_0" : 2
                    },
                    "indices" : 3
                }
            ]
        }
    ],
    "accessors" : [
        {
            "bufferView" : 0,
            "componentType" : 5126,
            "count" : 34907,
            "max" : [
                10.001433372497559,
                2.8899435997009277,
                10.066052436828613
            ],
            "min" : [
                -10.002639770507812,
                -3.3370418548583984,
                -12.253517150878906
            ],
            "type" : "VEC3"
        },
        {
            "bufferView" : 1,
            "componentType" : 5126,
            "count" : 34907,
            "type" : "VEC3"
        },
        {
            "bufferView" : 2,
            "componentType" : 5126,
            "count" : 34907,
            "type" : "VEC2"
        },
        {
            "bufferView" : 3,
            "componentType" : 5123,
            "count" : 182889,
            "type" : "SCALAR"
        }
    ],
    "bufferViews" : [
        {
            "buffer" : 0,
            "byteLength" : 418884,
            "byteOffset" : 0
        },
        {
            "buffer" : 0,
            "byteLength" : 418884,
            "byteOffset" : 418884
        },
        {
            "buffer" : 0,
            "byteLength" : 279256,
            "byteOffset" : 837768
        },
        {
            "buffer" : 0,
            "byteLength" : 365778,
            "byteOffset" : 1117024
        }
    ],
    "buffers" : [
        {
            "byteLength" : 1482804,
            "uri" : "data:application/octet-stream;base64,"
        }
    ]
}
