{
    "asset" : {
        "generator" : "Khronos glTF Blender I/O v1.3.48",
        "version" : "2.0"
    },
    "scene" : 0,
    "scenes" : [
        {
            "name" : "Scene",
            "nodes" : [
                0,
                1,
                2
            ]
        }
    ],
    "nodes" : [
        {
            "mesh" : 0,
            "name" : "body",
            "translation" : [
                0,
                2,
                -1
            ]
        },
        {
            "mesh" : 1,
            "name" : "tail",
            "translation" : [
                -2,
                2,
                -1
            ]
        },
        {
            "mesh" : 2,
            "name" : "head",
            "translation" : [
                2,
                2,
                -1
            ]
        }
    ],
    "meshes" : [
        {
            "name" : "Cube.001",
            "primitives" : [
                {
                    "attributes" : {
                        "POSITION" : 0,
                        "NORMAL" : 1,
                        "TEXCOORD_0" : 2
                    },
                    "indices" : 3
                }
            ]
        },
        {
            "name" : "Cube.002",
            "primitives" : [
                {
                    "attributes" : {
                        "POSITION" : 4,
                        "NORMAL" : 5,
                        "TEXCOORD_0" : 6
                    },
                    "indices" : 7
                }
            ]
        },
        {
            "name" : "Cube.003",
            "primitives" : [
                {
                    "attributes" : {
                        "POSITION" : 8,
                        "NORMAL" : 9,
                        "TEXCOORD_0" : 10
                    },
                    "indices" : 11
                }
            ]
        }
    ],
    "accessors" : [
        {
            "bufferView" : 0,
            "componentType" : 5126,
            "count" : 141,
            "max" : [
                1,
                1,
                1.4544838666915894
            ],
            "min" : [
                -1,
                -1.2070590257644653,
                -1.4544838666915894
            ],
            "type" : "VEC3"
        },
        {
            "bufferView" : 1,
            "componentType" : 5126,
            "count" : 141,
            "type" : "VEC3"
        },
        {
            "bufferView" : 2,
            "componentType" : 5126,
            "count" : 141,
            "type" : "VEC2"
        },
        {
            "bufferView" : 3,
            "componentType" : 5123,
            "count" : 318,
            "type" : "SCALAR"
        },
        {
            "bufferView" : 4,
            "componentType" : 5126,
            "count" : 157,
            "max" : [
                1,
                1,
                1.4544838666915894
            ],
            "min" : [
                -1,
                -1.2070590257644653,
                -1.4544838666915894
            ],
            "type" : "VEC3"
        },
        {
            "bufferView" : 5,
            "componentType" : 5126,
            "count" : 157,
            "type" : "VEC3"
        },
        {
            "bufferView" : 6,
            "componentType" : 5126,
            "count" : 157,
            "type" : "VEC2"
        },
        {
            "bufferView" : 7,
            "componentType" : 5123,
            "count" : 318,
            "type" : "SCALAR"
        },
        {
            "bufferView" : 8,
            "componentType" : 5126,
            "count" : 516,
            "max" : [
                1.7364959716796875,
                1,
                1.4544838666915894
            ],
            "min" : [
                -1,
                -1.2093931436538696,
                -1.4544838666915894
            ],
            "type" : "VEC3"
        },
        {
            "bufferView" : 9,
            "componentType" : 5126,
            "count" : 516,
            "type" : "VEC3"
        },
        {
            "bufferView" : 10,
            "componentType" : 5126,
            "count" : 516,
            "type" : "VEC2"
        },
        {
            "bufferView" : 11,
            "componentType" : 5123,
            "count" : 894,
            "type" : "SCALAR"
        }
    ],
    "bufferViews" : [
        {
            "buffer" : 0,
            "byteLength" : 1692,
            "byteOffset" : 0
        },
        {
            "buffer" : 0,
            "byteLength" : 1692,
            "byteOffset" : 1692
        },
        {
            "buffer" : 0,
            "byteLength" : 1128,
            "byteOffset" : 3384
        },
        {
            "buffer" : 0,
            "byteLength" : 636,
            "byteOffset" : 4512
        },
        {
            "buffer" : 0,
            "byteLength" : 1884,
            "byteOffset" : 5148
        },
        {
            "buffer" : 0,
            "byteLength" : 1884,
            "byteOffset" : 7032
        },
        {
            "buffer" : 0,
            "byteLength" : 1256,
            "byteOffset" : 8916
        },
        {
            "buffer" : 0,
            "byteLength" : 636,
            "byteOffset" : 10172
        },
        {
            "buffer" : 0,
            "byteLength" : 6192,
            "byteOffset" : 10808
        },
        {
            "buffer" : 0,
            "byteLength" : 6192,
            "byteOffset" : 17000
        },
        {
            "buffer" : 0,
            "byteLength" : 4128,
            "byteOffset" : 23192
        },
        {
            "buffer" : 0,
            "byteLength" : 1788,
            "byteOffset" : 27320
        }
    ],
    "buffers" : [
        {
            "byteLength" : 29108,
            "uri" : "data:application/octet-stream;base64,"
        }
    ]
}
